<?xml version="1.0" encoding="UTF-8"?>
<svg xmlns="http://www.w3.org/2000/svg" xmlns:xlink="http://www.w3.org/1999/xlink" viewBox="0 0 64 64" width="64px" height="64px">
<defs>
<linearGradient id="linear0" gradientUnits="userSpaceOnUse" x1="85.962379" y1="13.81106" x2="85.962379" y2="158.95488" gradientTransform="matrix(0.372093,0,0,0.372093,0,0)">
<stop offset="0" style="stop-color:rgb(69.01961%,69.01961%,69.01961%);stop-opacity:1;"/>
<stop offset="1" style="stop-color:rgb(18.039216%,18.039216%,18.039216%);stop-opacity:1;"/>
</linearGradient>
<linearGradient id="linear1" gradientUnits="userSpaceOnUse" x1="86.491814" y1="60.506378" x2="86.491814" y2="102.834503" gradientTransform="matrix(0.372093,0,0,0.372093,0,0)">
<stop offset="0" style="stop-color:rgb(90.980393%,90.980393%,90.980393%);stop-opacity:1;"/>
<stop offset="1" style="stop-color:rgb(40.000001%,40.000001%,40.000001%);stop-opacity:1;"/>
</linearGradient>
</defs>
<g id="surface32065026">
<path style=" stroke:none;fill-rule:nonzero;fill:url(#linear0);" d="M 15 58.335938 L 15 48.265625 C 9 43.304688 6.121094 36.601562 6.121094 29.804688 C 6.121094 16.492188 17.8125 5.664062 32.171875 5.664062 C 46.328125 5.664062 57.851562 16.492188 57.851562 29.804688 C 57.851562 43.117188 46.269531 53.949219 32.03125 53.949219 C 29.605469 53.949219 27.128906 53.636719 24.878906 53.050781 Z M 32.183594 7.664062 C 18.925781 7.664062 8.140625 17.597656 8.140625 29.808594 C 8.140625 36.058594 11.316406 42.503906 16.667969 47.046875 L 17 47.34375 L 17 54.992188 L 24.640625 50.910156 L 25.039062 51.015625 C 27.21875 51.625 29.640625 51.949219 32.03125 51.949219 C 45.167969 51.949219 55.855469 42.015625 55.855469 29.804688 C 55.855469 17.597656 45.238281 7.664062 32.183594 7.664062 Z M 32.183594 7.664062 "/>
<path style=" stroke:none;fill-rule:nonzero;fill:url(#linear1);" d="M 34.789062 37.699219 L 28.386719 31.046875 L 16.0625 37.863281 L 29.574219 23.523438 L 35.976562 30.171875 L 48.304688 23.355469 Z M 34.789062 37.699219 "/>
</g>
</svg>
